<?xml version="1.0" standalone="no"?>
<!DOCTYPE svg PUBLIC "-//W3C//DTD SVG 20010904//EN"
 "http://www.w3.org/TR/2001/REC-SVG-20010904/DTD/svg10.dtd">
<svg version="1.0" xmlns="http://www.w3.org/2000/svg"
 width="260.000000pt" height="260.000000pt" viewBox="0 0 260.000000 260.000000"
 preserveAspectRatio="xMidYMid meet">
<metadata>
Created by potrace 1.14, written by Peter Selinger 2001-2017
</metadata>
<g transform="translate(0.000000,260.000000) scale(0.100000,-0.100000)"
fill="#000000" stroke="none">
<path d="M839 2571 c-20 -20 -29 -39 -29 -61 0 -34 46 -90 74 -90 14 0 16 -41
16 -385 l0 -385 -69 -153 c-92 -203 -104 -231 -206 -457 -48 -107 -101 -224
-117 -260 -16 -36 -37 -81 -45 -100 -8 -19 -26 -58 -39 -85 -71 -153 -83 -193
-80 -268 5 -134 81 -240 206 -288 54 -21 67 -21 730 -22 371 0 693 3 715 7 96
18 185 91 230 189 20 42 24 65 22 131 -2 81 -3 82 -131 366 -122 271 -186 413
-262 578 -19 41 -34 75 -34 77 0 2 -13 32 -29 67 -16 35 -43 94 -60 132 l-31
69 0 393 c0 352 2 394 16 394 28 0 74 56 74 90 0 22 -9 41 -29 61 l-29 29
-432 0 -432 0 -29 -29z m701 -561 l0 -409 40 -90 c22 -50 53 -119 68 -153 16
-35 46 -101 67 -148 21 -47 53 -118 71 -158 19 -41 34 -75 34 -77 0 -2 17 -41
39 -87 21 -45 57 -126 81 -178 23 -52 52 -117 65 -145 95 -205 102 -237 64
-305 -12 -21 -39 -48 -61 -60 l-40 -22 -672 -1 c-588 0 -675 2 -701 16 -59 30
-95 87 -95 147 0 26 37 120 105 265 12 28 53 118 90 200 36 83 77 173 90 200
13 28 64 140 113 250 50 110 105 232 123 270 l34 70 3 413 3 412 239 0 240 0
0 -410z"/>
<path d="M1149 1498 c-11 -13 -46 -81 -78 -153 -32 -71 -72 -161 -89 -198 -18
-38 -32 -70 -32 -72 0 -2 -15 -36 -34 -77 -18 -40 -48 -106 -66 -147 -17 -40
-47 -106 -66 -147 -19 -41 -34 -76 -34 -78 0 -2 -21 -48 -46 -102 -56 -118
-60 -162 -21 -202 l27 -27 584 -3 584 -2 30 25 c58 49 55 64 -68 340 -10 22
-82 186 -160 365 -78 179 -153 349 -166 378 -13 29 -24 56 -24 61 0 4 -9 19
-21 32 -20 23 -27 24 -160 27 -135 3 -140 3 -160 -20z"/>
</g>
</svg>
