<?xml version="1.0" standalone="no"?>
<!DOCTYPE svg PUBLIC "-//W3C//DTD SVG 20010904//EN"
 "http://www.w3.org/TR/2001/REC-SVG-20010904/DTD/svg10.dtd">
<svg version="1.0" xmlns="http://www.w3.org/2000/svg"
 width="238.000000pt" height="238.000000pt" viewBox="0 0 238.000000 238.000000"
 preserveAspectRatio="xMidYMid meet">
<metadata>
Created by potrace 1.14, written by Peter Selinger 2001-2017
</metadata>
<g transform="translate(0.000000,238.000000) scale(0.100000,-0.100000)"
fill="#000000" stroke="none">
<path d="M679 2351 c-20 -20 -29 -39 -29 -61 0 -48 47 -90 99 -90 l41 0 0
-271 0 -270 -89 -172 c-49 -95 -137 -266 -196 -382 -182 -355 -297 -578 -320
-620 -94 -170 -29 -375 145 -458 45 -22 46 -22 840 -22 437 0 804 2 815 5 57
15 123 67 184 146 8 10 32 76 38 104 5 26 5 84 -1 120 -3 19 -143 310 -311
647 l-305 612 0 281 0 280 41 0 c31 0 47 6 70 29 39 40 39 82 0 122 l-29 29
-482 0 -482 0 -29 -29z"/>
</g>
</svg>
