<?xml version="1.0" standalone="no"?>
<!DOCTYPE svg PUBLIC "-//W3C//DTD SVG 20010904//EN"
 "http://www.w3.org/TR/2001/REC-SVG-20010904/DTD/svg10.dtd">
<svg version="1.0" xmlns="http://www.w3.org/2000/svg"
 width="260.000000pt" height="260.000000pt" viewBox="0 0 260.000000 260.000000"
 preserveAspectRatio="xMidYMid meet">
<metadata>
Created by potrace 1.14, written by Peter Selinger 2001-2017
</metadata>
<g transform="translate(0.000000,260.000000) scale(0.100000,-0.100000)"
fill="#000000" stroke="none">
<path d="M754 2566 c-30 -30 -34 -38 -28 -73 8 -56 38 -81 104 -89 30 -3 57
-7 58 -9 2 -2 3 -135 3 -297 l-1 -293 -81 -160 c-45 -88 -110 -214 -144 -280
-57 -110 -164 -319 -394 -768 l-86 -167 0 -88 c0 -75 4 -95 28 -143 46 -94
138 -168 229 -185 57 -10 1650 -12 1708 -2 62 11 117 42 172 95 68 67 92 128
93 235 l0 87 -337 676 -338 675 0 310 c0 288 1 310 18 311 72 2 96 8 118 30
45 46 33 133 -22 158 -18 8 -179 11 -545 11 l-521 0 -34 -34z m818 -165 c5 -1
8 -149 7 -330 l0 -329 342 -683 c326 -654 341 -686 337 -730 -6 -62 -41 -115
-92 -141 l-41 -22 -810 -1 c-448 -1 -825 3 -844 8 -50 13 -88 45 -111 92 -36
74 -30 97 86 323 59 114 151 295 206 402 55 107 131 254 168 325 37 72 105
203 150 291 l82 162 -1 315 0 316 27 3 c21 2 463 1 494 -1z"/>
<path d="M1163 2248 c-38 -27 -53 -57 -53 -101 1 -36 17 -62 57 -89 74 -48
183 10 183 97 0 93 -110 147 -187 93z"/>
<path d="M1355 1830 c-90 -20 -137 -101 -106 -182 53 -138 257 -103 263 45 1
33 -21 85 -45 105 -28 23 -82 39 -112 32z"/>
<path d="M1094 1340 c-55 -28 -74 -50 -94 -110 -45 -132 56 -259 195 -248 134
11 214 152 155 272 -47 92 -165 132 -256 86z"/>
<path d="M1610 1027 c-30 -13 -98 -50 -150 -83 -208 -132 -268 -137 -487 -44
-171 74 -172 73 -309 -232 -92 -207 -106 -244 -101 -276 4 -24 16 -45 34 -60
l28 -22 693 2 694 3 24 28 c15 17 24 41 24 61 0 28 -179 457 -237 570 -41 79
-109 96 -213 53z"/>
</g>
</svg>
