<?xml version="1.0" standalone="no"?>
<!DOCTYPE svg PUBLIC "-//W3C//DTD SVG 20010904//EN"
 "http://www.w3.org/TR/2001/REC-SVG-20010904/DTD/svg10.dtd">
<svg version="1.0" xmlns="http://www.w3.org/2000/svg"
 width="238.000000pt" height="238.000000pt" viewBox="0 0 238.000000 238.000000"
 preserveAspectRatio="xMidYMid meet">
<metadata>
Created by potrace 1.14, written by Peter Selinger 2001-2017
</metadata>
<g transform="translate(0.000000,238.000000) scale(0.100000,-0.100000)"
fill="#000000" stroke="none">
<path d="M679 2351 c-20 -20 -29 -39 -29 -61 0 -48 47 -90 99 -90 l41 0 0
-271 0 -270 -89 -172 c-48 -95 -131 -255 -183 -357 -262 -510 -313 -608 -333
-645 -97 -178 -21 -396 163 -465 51 -19 78 -20 829 -20 887 0 836 -5 927 86
65 64 70 72 87 120 25 75 27 148 6 209 -8 22 -148 306 -311 632 l-296 592 0
281 0 280 41 0 c31 0 47 6 70 29 39 40 39 82 0 122 l-29 29 -482 0 -482 0 -29
-29z m751 -451 l0 -299 310 -621 c331 -663 330 -661 294 -732 -19 -37 -48 -64
-84 -79 -17 -7 -270 -11 -776 -11 -652 0 -754 2 -780 15 -37 19 -70 55 -83 90
-25 66 -22 75 184 472 137 265 281 546 369 719 l86 168 0 289 0 289 240 0 240
0 0 -300z"/>
<path d="M1073 2068 c-61 -30 -67 -126 -11 -173 81 -68 199 26 158 124 -20 49
-95 74 -147 49z"/>
<path d="M1190 1667 c-34 -17 -70 -74 -70 -112 0 -38 36 -95 70 -112 56 -28
120 -10 157 46 28 42 29 86 3 128 -34 56 -104 78 -160 50z"/>
<path d="M991 1232 c-56 -28 -91 -81 -97 -143 -5 -66 14 -109 69 -153 32 -26
47 -30 95 -31 68 0 105 17 145 67 111 138 -53 339 -212 260z"/>
<path d="M1481 953 c-43 -15 -115 -55 -186 -103 -135 -92 -240 -100 -405 -28
-111 49 -111 49 -157 28 -38 -17 -42 -24 -132 -221 -107 -234 -113 -265 -62
-311 l31 -28 614 0 614 0 30 25 c59 49 55 70 -64 330 -7 17 -38 86 -68 155
-32 74 -64 132 -78 142 -31 24 -87 28 -137 11z"/>
</g>
</svg>
